<mxfile host="app.diagrams.net" agent="Mozilla/5.0 (Windows NT 10.0; Win64; x64) AppleWebKit/537.36 (KHTML, like Gecko) Chrome/135.0.0.0 Safari/537.36 Edg/135.0.0.0" version="26.2.14">
  <diagram name="Page-1" id="jxMB_8JDx-QaIYdoYpCV">
    <mxGraphModel dx="810" dy="430" grid="1" gridSize="10" guides="1" tooltips="1" connect="1" arrows="1" fold="1" page="1" pageScale="1" pageWidth="850" pageHeight="1100" math="0" shadow="0">
      <root>
        <mxCell id="0" />
        <mxCell id="1" parent="0" />
        <mxCell id="yAZzmOoUf0Eia2lXk-8_-1" value="" style="rounded=0;whiteSpace=wrap;html=1;" vertex="1" parent="1">
          <mxGeometry x="310" y="470" width="120" height="80" as="geometry" />
        </mxCell>
        <mxCell id="yAZzmOoUf0Eia2lXk-8_-27" value="" style="edgeStyle=orthogonalEdgeStyle;rounded=0;orthogonalLoop=1;jettySize=auto;html=1;exitX=0;exitY=0.25;exitDx=0;exitDy=0;" edge="1" parent="1" source="yAZzmOoUf0Eia2lXk-8_-2" target="yAZzmOoUf0Eia2lXk-8_-20">
          <mxGeometry relative="1" as="geometry" />
        </mxCell>
        <mxCell id="yAZzmOoUf0Eia2lXk-8_-2" value="" style="rounded=0;whiteSpace=wrap;html=1;" vertex="1" parent="1">
          <mxGeometry x="250" y="470" width="40" height="80" as="geometry" />
        </mxCell>
        <mxCell id="yAZzmOoUf0Eia2lXk-8_-3" value="" style="rounded=0;whiteSpace=wrap;html=1;" vertex="1" parent="1">
          <mxGeometry x="250" y="570" width="330" height="20" as="geometry" />
        </mxCell>
        <mxCell id="yAZzmOoUf0Eia2lXk-8_-35" style="edgeStyle=orthogonalEdgeStyle;rounded=0;orthogonalLoop=1;jettySize=auto;html=1;exitX=0;exitY=0.5;exitDx=0;exitDy=0;" edge="1" parent="1" source="yAZzmOoUf0Eia2lXk-8_-4" target="yAZzmOoUf0Eia2lXk-8_-1">
          <mxGeometry relative="1" as="geometry" />
        </mxCell>
        <mxCell id="yAZzmOoUf0Eia2lXk-8_-4" value="Validate API" style="rounded=0;whiteSpace=wrap;html=1;" vertex="1" parent="1">
          <mxGeometry x="460" y="530" width="120" height="20" as="geometry" />
        </mxCell>
        <mxCell id="yAZzmOoUf0Eia2lXk-8_-37" value="" style="edgeStyle=orthogonalEdgeStyle;rounded=0;orthogonalLoop=1;jettySize=auto;html=1;entryX=1;entryY=0.5;entryDx=0;entryDy=0;" edge="1" parent="1" source="yAZzmOoUf0Eia2lXk-8_-5" target="yAZzmOoUf0Eia2lXk-8_-1">
          <mxGeometry relative="1" as="geometry" />
        </mxCell>
        <mxCell id="yAZzmOoUf0Eia2lXk-8_-5" value="Reporting API" style="rounded=0;whiteSpace=wrap;html=1;" vertex="1" parent="1">
          <mxGeometry x="460" y="470" width="120" height="20" as="geometry" />
        </mxCell>
        <mxCell id="yAZzmOoUf0Eia2lXk-8_-36" value="" style="edgeStyle=orthogonalEdgeStyle;rounded=0;orthogonalLoop=1;jettySize=auto;html=1;" edge="1" parent="1" source="yAZzmOoUf0Eia2lXk-8_-6" target="yAZzmOoUf0Eia2lXk-8_-1">
          <mxGeometry relative="1" as="geometry" />
        </mxCell>
        <mxCell id="yAZzmOoUf0Eia2lXk-8_-6" value="Store API" style="rounded=0;whiteSpace=wrap;html=1;" vertex="1" parent="1">
          <mxGeometry x="460" y="500" width="120" height="20" as="geometry" />
        </mxCell>
        <mxCell id="yAZzmOoUf0Eia2lXk-8_-7" value="" style="rounded=0;whiteSpace=wrap;html=1;" vertex="1" parent="1">
          <mxGeometry x="310" y="430" width="120" height="20" as="geometry" />
        </mxCell>
        <mxCell id="yAZzmOoUf0Eia2lXk-8_-8" value="" style="rounded=0;whiteSpace=wrap;html=1;" vertex="1" parent="1">
          <mxGeometry x="310" y="370" width="120" height="40" as="geometry" />
        </mxCell>
        <mxCell id="yAZzmOoUf0Eia2lXk-8_-9" value="" style="rounded=0;whiteSpace=wrap;html=1;" vertex="1" parent="1">
          <mxGeometry x="150" y="380" width="120" height="20" as="geometry" />
        </mxCell>
        <mxCell id="yAZzmOoUf0Eia2lXk-8_-10" value="" style="rounded=0;whiteSpace=wrap;html=1;" vertex="1" parent="1">
          <mxGeometry x="150" y="350" width="120" height="10" as="geometry" />
        </mxCell>
        <mxCell id="yAZzmOoUf0Eia2lXk-8_-11" value="person" style="rounded=0;whiteSpace=wrap;html=1;" vertex="1" parent="1">
          <mxGeometry x="650" y="230" width="120" height="20" as="geometry" />
        </mxCell>
        <mxCell id="yAZzmOoUf0Eia2lXk-8_-12" value="" style="rounded=0;whiteSpace=wrap;html=1;" vertex="1" parent="1">
          <mxGeometry x="670" y="330" width="120" height="20" as="geometry" />
        </mxCell>
        <mxCell id="yAZzmOoUf0Eia2lXk-8_-13" value="" style="rounded=0;whiteSpace=wrap;html=1;" vertex="1" parent="1">
          <mxGeometry x="60" y="90" width="120" height="20" as="geometry" />
        </mxCell>
        <mxCell id="yAZzmOoUf0Eia2lXk-8_-14" value="" style="rounded=0;whiteSpace=wrap;html=1;" vertex="1" parent="1">
          <mxGeometry x="60" y="120" width="120" height="20" as="geometry" />
        </mxCell>
        <mxCell id="yAZzmOoUf0Eia2lXk-8_-15" value="" style="rounded=0;whiteSpace=wrap;html=1;" vertex="1" parent="1">
          <mxGeometry x="60" y="270" width="120" height="20" as="geometry" />
        </mxCell>
        <mxCell id="yAZzmOoUf0Eia2lXk-8_-16" value="" style="rounded=0;whiteSpace=wrap;html=1;" vertex="1" parent="1">
          <mxGeometry x="60" y="240" width="120" height="20" as="geometry" />
        </mxCell>
        <mxCell id="yAZzmOoUf0Eia2lXk-8_-17" value="" style="rounded=0;whiteSpace=wrap;html=1;" vertex="1" parent="1">
          <mxGeometry x="60" y="210" width="120" height="20" as="geometry" />
        </mxCell>
        <mxCell id="yAZzmOoUf0Eia2lXk-8_-18" value="" style="rounded=0;whiteSpace=wrap;html=1;" vertex="1" parent="1">
          <mxGeometry x="60" y="180" width="120" height="20" as="geometry" />
        </mxCell>
        <mxCell id="yAZzmOoUf0Eia2lXk-8_-19" value="" style="rounded=0;whiteSpace=wrap;html=1;" vertex="1" parent="1">
          <mxGeometry x="60" y="150" width="120" height="20" as="geometry" />
        </mxCell>
        <mxCell id="yAZzmOoUf0Eia2lXk-8_-29" value="" style="edgeStyle=orthogonalEdgeStyle;rounded=0;orthogonalLoop=1;jettySize=auto;html=1;exitX=0.552;exitY=-0.023;exitDx=0;exitDy=0;exitPerimeter=0;" edge="1" parent="1" source="yAZzmOoUf0Eia2lXk-8_-20">
          <mxGeometry relative="1" as="geometry">
            <mxPoint x="210" y="400" as="targetPoint" />
            <Array as="points">
              <mxPoint x="212" y="470" />
              <mxPoint x="210" y="470" />
              <mxPoint x="210" y="440" />
              <mxPoint x="211" y="440" />
              <mxPoint x="211" y="400" />
            </Array>
          </mxGeometry>
        </mxCell>
        <mxCell id="yAZzmOoUf0Eia2lXk-8_-20" value="" style="image;sketch=0;aspect=fixed;html=1;points=[];align=center;fontSize=12;image=img/lib/mscae/Person.svg;" vertex="1" parent="1">
          <mxGeometry x="203" y="479.03" width="17" height="22.97" as="geometry" />
        </mxCell>
        <mxCell id="yAZzmOoUf0Eia2lXk-8_-25" style="edgeStyle=orthogonalEdgeStyle;rounded=0;orthogonalLoop=1;jettySize=auto;html=1;entryX=0;entryY=0.75;entryDx=0;entryDy=0;" edge="1" parent="1" source="yAZzmOoUf0Eia2lXk-8_-23" target="yAZzmOoUf0Eia2lXk-8_-2">
          <mxGeometry relative="1" as="geometry">
            <Array as="points">
              <mxPoint x="199" y="540" />
              <mxPoint x="199" y="540" />
              <mxPoint x="199" y="530" />
            </Array>
          </mxGeometry>
        </mxCell>
        <mxCell id="yAZzmOoUf0Eia2lXk-8_-23" value="" style="image;sketch=0;aspect=fixed;html=1;points=[];align=center;fontSize=12;image=img/lib/mscae/Person.svg;" vertex="1" parent="1">
          <mxGeometry x="190" y="550" width="17" height="22.97" as="geometry" />
        </mxCell>
        <mxCell id="yAZzmOoUf0Eia2lXk-8_-30" value="Postgres" style="shape=cylinder3;whiteSpace=wrap;html=1;boundedLbl=1;backgroundOutline=1;size=15;" vertex="1" parent="1">
          <mxGeometry x="490" y="370" width="60" height="80" as="geometry" />
        </mxCell>
        <mxCell id="yAZzmOoUf0Eia2lXk-8_-31" style="edgeStyle=orthogonalEdgeStyle;rounded=0;orthogonalLoop=1;jettySize=auto;html=1;entryX=0;entryY=0;entryDx=0;entryDy=52.5;entryPerimeter=0;" edge="1" parent="1" source="yAZzmOoUf0Eia2lXk-8_-7" target="yAZzmOoUf0Eia2lXk-8_-30">
          <mxGeometry relative="1" as="geometry" />
        </mxCell>
        <mxCell id="yAZzmOoUf0Eia2lXk-8_-32" value="Audit" style="edgeLabel;html=1;align=center;verticalAlign=middle;resizable=0;points=[];" vertex="1" connectable="0" parent="yAZzmOoUf0Eia2lXk-8_-31">
          <mxGeometry x="-0.7345" y="-1" relative="1" as="geometry">
            <mxPoint x="20" y="-1" as="offset" />
          </mxGeometry>
        </mxCell>
        <mxCell id="yAZzmOoUf0Eia2lXk-8_-38" style="edgeStyle=orthogonalEdgeStyle;rounded=0;orthogonalLoop=1;jettySize=auto;html=1;entryX=1;entryY=0;entryDx=0;entryDy=52.5;entryPerimeter=0;exitX=1;exitY=0.5;exitDx=0;exitDy=0;" edge="1" parent="1" source="yAZzmOoUf0Eia2lXk-8_-6" target="yAZzmOoUf0Eia2lXk-8_-30">
          <mxGeometry relative="1" as="geometry" />
        </mxCell>
        <mxCell id="yAZzmOoUf0Eia2lXk-8_-39" style="edgeStyle=orthogonalEdgeStyle;rounded=0;orthogonalLoop=1;jettySize=auto;html=1;entryX=1;entryY=0;entryDx=0;entryDy=52.5;entryPerimeter=0;exitX=1;exitY=0.5;exitDx=0;exitDy=0;" edge="1" parent="1" source="yAZzmOoUf0Eia2lXk-8_-5" target="yAZzmOoUf0Eia2lXk-8_-30">
          <mxGeometry relative="1" as="geometry" />
        </mxCell>
        <mxCell id="yAZzmOoUf0Eia2lXk-8_-40" style="edgeStyle=orthogonalEdgeStyle;rounded=0;orthogonalLoop=1;jettySize=auto;html=1;entryX=1;entryY=0;entryDx=0;entryDy=52.5;entryPerimeter=0;exitX=1;exitY=0.5;exitDx=0;exitDy=0;" edge="1" parent="1" source="yAZzmOoUf0Eia2lXk-8_-4" target="yAZzmOoUf0Eia2lXk-8_-30">
          <mxGeometry relative="1" as="geometry" />
        </mxCell>
      </root>
    </mxGraphModel>
  </diagram>
</mxfile>
